PathFileType	4	(X/Y/Z)	C:\Users\Basilio\Documents\Thesis Gigler\squatting_fais\c3dfiles\077\SLS_front_pre4\markers_experimental.trc
DataRate	CameraRate	NumFrames	NumMarkers	Units	OrigDataRate	OrigDataStartFrame	OrigNumFrames
200.000000	200.000000	4	60	mm	200.000000	1387	1586
Frame#	Time	FHD			RBHD			C7			T10			CLAV			LSHO			LUUPA			LMUPA			LDUPA			LLEP			LMEP			LRAD			LUL			LRFIN			RSHO			RUPA1			RMUPA			RDUPA			RLEP			RMEP			RRAD			RUL			RUFIN			LASI			RASI			USACR			LSACR			RSACR			LTHI1			LTHI2			LTHI3			LTHI4			LLFC			LMFC			LTIB1			LTIB2			LTIB3			LTIB4			LLMAL			LHEE			LMT1			LMT2			LMT5			RTHI			RTHI2			RTHI3			RTHI4			RLFC			RMFC			RTIB1			RTIB2			RTIB3			RTIB4			RLMAL			RMMAL			RHEE			RMT1			RMT2			RMT5			LBHD			
		X1	Y1	Z1	X2	Y2	Z2	X3	Y3	Z3	X4	Y4	Z4	X5	Y5	Z5	X6	Y6	Z6	X7	Y7	Z7	X8	Y8	Z8	X9	Y9	Z9	X10	Y10	Z10	X11	Y11	Z11	X12	Y12	Z12	X13	Y13	Z13	X14	Y14	Z14	X15	Y15	Z15	X16	Y16	Z16	X17	Y17	Z17	X18	Y18	Z18	X19	Y19	Z19	X20	Y20	Z20	X21	Y21	Z21	X22	Y22	Z22	X23	Y23	Z23	X24	Y24	Z24	X25	Y25	Z25	X26	Y26	Z26	X27	Y27	Z27	X28	Y28	Z28	X29	Y29	Z29	X30	Y30	Z30	X31	Y31	Z31	X32	Y32	Z32	X33	Y33	Z33	X34	Y34	Z34	X35	Y35	Z35	X36	Y36	Z36	X37	Y37	Z37	X38	Y38	Z38	X39	Y39	Z39	X40	Y40	Z40	X41	Y41	Z41	X42	Y42	Z42	X43	Y43	Z43	X44	Y44	Z44	X45	Y45	Z45	X46	Y46	Z46	X47	Y47	Z47	X48	Y48	Z48	X49	Y49	Z49	X50	Y50	Z50	X51	Y51	Z51	X52	Y52	Z52	X53	Y53	Z53	X54	Y54	Z54	X55	Y55	Z55	X56	Y56	Z56	X57	Y57	Z57	X58	Y58	Z58	X59	Y59	Z59	X60	Y60	Z60	

1388	6.935	-116.4224472045899	1771.691284179688	-1082.117431640625	-305.8580627441407	1766.444702148438	-1023.845581054688	-412.8752441406251	1628.6884765625	-1099.995727539063	-439.1475830078126	1282.820434570313	-1050.4892578125	-255.5872650146485	1561.167358398438	-1096.010009765625	-285.9695434570313	1593.187744140625	-1269.423706054688	-120.9472579956055	1536.395141601563	-1368.261108398438	-91.62882232666017	1566.126342773438	-1341.220336914063	-52.69615936279298	1532.003662109375	-1373.922119140625	12.09366798400879	1539.743408203125	-1369.1337890625	17.26127243041993	1470.71875	-1338.822021484375	302.4515075683594	1571.7666015625	-1250.263305664063	308.8755493164063	1575.740356445313	-1329.49609375	402.8955688476564	1594.806640625	-1258.849365234375	-266.0925598144532	1608.668090820313	-936.7471313476565	-108.8380279541016	1569.774291992188	-827.8806762695315	-81.64183807373048	1591.908203125	-862.6638183593752	-39.02883529663087	1565.063720703125	-826.9188232421877	26.0779151916504	1566.745727539063	-835.3511352539065	27.38020324707032	1492.586303710938	-863.4843750000002	308.4896850585938	1579.336791992188	-950.2374267578127	321.2014160156251	1591.64111328125	-869.9533691406252	403.4988403320314	1598.445068359375	-953.1162109375002	-260.9232482910157	1067.572265625	-1170.07177734375	-247.6077117919922	1119.614501953125	-892.1798095703127	-449.5060119628907	1173.713623046875	-1031.76806640625	-457.472137451172	1142.166137695313	-1057.086181640625	-458.0980224609376	1143.744262695313	-1001.841674804688	-340.0881347656251	857.145935058594	-1199.343383789063	-315.3142089843751	777.2922973632815	-1198.31005859375	-266.0233154296876	777.682312011719	-1203.286376953125	-340.6731262207032	728.7664184570314	-1173.640380859375	-318.2889404296876	579.7644042968751	-1148.923706054688	-282.3604431152344	563.7927246093751	-1018.8134765625	-283.1226501464844	358.9226074218751	-1072.915649414063	-327.5757141113282	312.4632873535157	-1135.681274414063	-291.3530273437501	310.9652709960938	-1106.134887695313	-296.4500122070313	232.4752197265626	-1069.704833984375	-367.8631896972657	114.1248397827149	-1093.077026367188	-418.093963623047	89.07894134521486	-1036.1962890625	-210.9787139892579	60.78766250610353	-1010.278869628906	-203.9319763183594	55.82254791259767	-1052.628295898438	-330.5221557617188	134.7019500732422	-1015.384033203125	-239.0424194335938	780.821960449219	-818.183776855469	-189.3003845214844	735.9654541015626	-822.9038696289065	-158.2640075683594	744.3771362304689	-831.900329589844	-199.7939605712891	653.9711914062501	-828.4404296875002	-192.650375366211	592.0493164062501	-824.7591552734377	-185.6500854492188	568.3092041015626	-952.8718872070315	-174.8449401855469	447.9077453613282	-836.407409667969	-247.7817535400391	388.6700134277345	-785.417663574219	-212.4327087402344	373.8923950195313	-812.8288574218752	-224.4646759033204	328.6424865722657	-848.7232666015627	-320.6113586425782	170.7331237792969	-777.9678955078127	-307.1768188476563	166.3424377441407	-869.4556274414065	-397.7840881347657	133.9235382080078	-820.3017578125002	-175.7744445800782	96.51519775390628	-847.1531982421877	-172.1888885498047	101.844841003418	-809.444030761719	-188.5140991210938	81.98913574218751	-758.8366699218751	-286.0933227539063	1762.660278320313	-1166.959594726563	
1389	6.94	-114.8896484375	1770.83203125	-1081.2646484375	-304.5249938964844	1766.519409179688	-1023.442016601563	-411.9409484863282	1629.011840820313	-1099.593627929688	-439.1814880371095	1283.101928710938	-1050.665405273438	-254.6131439208985	1561.181274414063	-1095.453002929688	-285.2524108886719	1593.210815429688	-1269.033325195313	-120.5570297241211	1535.42822265625	-1368.162109375	-90.99407958984376	1564.699462890625	-1341.037963867188	-51.96622467041017	1530.241333007813	-1373.579467773438	12.38539505004883	1537.684326171875	-1369.112915039063	17.47946548461914	1468.520629882813	-1338.424560546875	303.0067138671876	1568.681030273438	-1250.287231445313	309.3424377441407	1572.330444335938	-1329.680786132813	403.6507873535157	1591.468017578125	-1258.898071289063	-265.3639221191407	1608.43359375	-936.2819824218752	-108.4481811523438	1568.801025390625	-827.297790527344	-81.05688476562501	1590.623413085938	-862.0532836914065	-38.58793258666993	1563.954956054688	-826.2668457031252	26.53042793273926	1565.35986328125	-834.5354003906252	27.44405937194825	1490.826538085938	-862.6779785156252	308.8984069824219	1576.83642578125	-949.1239013671877	321.3757934570313	1588.58740234375	-869.267761230469	403.570037841797	1594.916870117188	-952.4963378906252	-260.9612121582032	1067.501098632813	-1169.75439453125	-248.1372985839844	1119.641235351563	-891.7935791015627	-449.8308410644532	1173.834594726563	-1032.0048828125	-457.6134643554689	1142.57275390625	-1057.314575195313	-458.3128662109376	1144.023681640625	-1001.998291015625	-340.2085571289063	857.174499511719	-1198.984130859375	-315.4555664062501	777.127868652344	-1198.10791015625	-266.2256164550782	777.659606933594	-1202.897583007813	-341.0769653320313	728.8807373046876	-1173.488647460938	-318.5885314941407	579.7869262695314	-1148.662719726563	-283.2017822265626	563.8576660156251	-1018.454162597656	-283.5775756835938	359.2439575195313	-1072.729248046875	-327.6569824218751	312.5799560546876	-1135.590698242188	-291.5681762695313	311.1087341308594	-1105.942016601563	-296.5349121093751	233.3291473388672	-1069.247314453125	-367.8336791992188	114.1794204711914	-1093.075805664063	-418.0889892578126	89.09246826171876	-1036.1953125	-210.9813842773438	60.77940750122072	-1010.277893066406	-203.9868164062501	55.82512283325197	-1052.652099609375	-330.7045898437501	134.9326782226563	-1015.396362304688	-241.1986541748047	780.7789306640627	-817.568298339844	-191.8938446044922	735.5017089843751	-822.161804199219	-160.7157135009766	743.6718139648439	-830.9582519531252	-202.6079711914063	653.7286987304689	-827.6770019531252	-195.6708068847657	591.7980957031251	-823.9879150390627	-188.5945434570313	568.1774902343751	-952.1496582031252	-177.8120574951172	447.4188842773439	-835.472839355469	-250.9885559082032	387.9862365722657	-784.9439697265627	-215.0435333251954	373.0025939941407	-812.0357666015627	-227.1871948242188	327.9214477539063	-848.0662841796877	-324.0184936523438	170.2447204589844	-778.219665527344	-309.4907531738282	165.9100494384766	-869.5366210937502	-400.6735839843751	133.574691772461	-821.0042724609377	-178.8218994140625	96.08581542968753	-846.1623535156252	-175.3532257080078	101.2391433715821	-808.3818969726565	-191.7720184326172	81.4452362060547	-757.8461303710939	-284.7813110351563	1762.455444335938	-1166.377319335938	
1390	6.945	-113.4827117919922	1770.197875976563	-1080.737060546875	-303.1914367675782	1766.49365234375	-1022.958862304688	-411.0559692382814	1629.605224609375	-1099.215942382813	-439.0603637695314	1283.530151367188	-1050.857177734375	-253.9035644531251	1561.002563476563	-1094.876831054688	-284.3998718261719	1593.09375	-1268.693115234375	-120.5301284790039	1534.328247070313	-1367.963134765625	-89.73043060302736	1563.194091796875	-1340.67529296875	-51.97727203369142	1528.81396484375	-1373.446044921875	12.86003017425537	1535.483764648438	-1368.939575195313	17.21436309814453	1465.82958984375	-1336.847412109375	306.2834777832032	1565.813110351563	-1249.179809570313	310.1780395507813	1568.632934570313	-1329.664184570313	404.1745910644532	1587.872802734375	-1258.940795898438	-264.5980224609376	1608.296752929688	-935.7529296875002	-107.9427490234375	1568.011108398438	-826.6362915039065	-80.43853759765626	1589.44580078125	-861.3657836914065	-38.14167785644532	1562.590087890625	-825.2862548828127	26.85291481018067	1563.571533203125	-833.7269287109377	27.58935356140137	1489.331298828125	-862.2697753906252	309.2453002929688	1574.163452148438	-947.7546386718752	321.7854614257813	1585.62841796875	-868.198669433594	404.5064697265626	1592.368530273438	-950.980407714844	-261.1601562500001	1067.421752929688	-1169.370727539063	-248.7400054931641	1119.659301757813	-891.4856567382815	-450.0808105468751	1174.093505859375	-1032.222045898438	-457.9000549316407	1142.680786132813	-1057.485229492188	-458.5741577148439	1144.306762695313	-1002.219299316406	-340.3289184570313	857.2349243164065	-1198.789916992188	-315.5458984375001	777.258239746094	-1197.92919921875	-266.2656860351563	777.6987915039065	-1202.624877929688	-341.2269592285157	728.8685302734376	-1173.265991210938	-319.0171813964844	579.9210205078126	-1148.311645507813	-283.7670593261719	563.9136352539064	-1018.132446289063	-283.8644104003907	359.4568786621094	-1072.436279296875	-327.8739929199219	312.6197814941407	-1135.397216796875	-291.7930603027344	311.0584716796876	-1105.641479492188	-296.7017211914063	233.2291870117188	-1069.21728515625	-367.8134155273438	114.1691055297852	-1093.03271484375	-418.1475219726564	89.13976287841798	-1036.175415039063	-210.8425445556641	60.83942031860353	-1010.228454589844	-203.9373321533204	55.72124099731447	-1052.603759765625	-329.4313354492188	135.0647583007813	-1015.379333496094	-243.5370788574219	780.590026855469	-816.9916992187502	-194.4033660888672	735.2259521484376	-821.528015136719	-163.0330200195313	743.3065795898439	-829.8459472656252	-205.420639038086	653.4342041015626	-826.8686523437502	-198.6332092285157	591.2964477539064	-823.130310058594	-190.4223022460938	567.7449340820314	-951.2314453125002	-180.7732696533203	447.053436279297	-834.7137451171877	-254.1944122314454	387.574676513672	-784.5518798828127	-218.1134948730469	372.9281311035157	-811.1649169921877	-230.262924194336	327.7532043457032	-847.6140136718752	-327.1600036621094	169.5383911132813	-778.441833496094	-312.4724121093751	165.6894073486328	-869.573913574219	-403.5737915039064	133.1652526855469	-821.6934204101565	-182.2118682861328	96.18912506103518	-845.4250488281252	-178.475341796875	100.806510925293	-807.180114746094	-195.3325653076172	81.04685211181642	-756.9011840820314	-283.5636901855469	1762.307495117188	-1165.972290039063	
1391	6.95	-112.2055130004883	1769.672973632813	-1080.045288085938	-301.8838806152344	1766.545776367188	-1022.485290527344	-410.2084960937501	1629.890014648438	-1098.97314453125	-439.0070800781251	1283.930053710938	-1051.013061523438	-252.1855163574219	1560.678955078125	-1094.284912109375	-283.4707336425782	1592.827880859375	-1268.251831054688	-119.4600906372071	1532.704223632813	-1367.540161132813	-89.69913482666017	1561.604858398438	-1340.65576171875	-51.24208450317384	1526.484008789063	-1373.080932617188	13.80466747283936	1532.7587890625	-1368.802368164063	17.32311248779297	1463.521728515625	-1336.663940429688	304.1130371093751	1561.7548828125	-1250.217529296875	310.3223571777344	1564.804321289063	-1329.574829101563	404.8112792968751	1584.019897460938	-1258.98193359375	-263.9160461425782	1608.136596679688	-935.1669921875002	-107.5649948120117	1566.835327148438	-825.8997192382815	-79.89492034912111	1588.198120117188	-860.741149902344	-37.85017776489259	1561.035522460938	-824.8123779296877	27.25478553771973	1561.985595703125	-832.838317871094	27.60544204711915	1487.433837890625	-861.3393554687502	309.7442321777344	1571.204467773438	-946.636413574219	322.1325988769532	1582.50537109375	-867.1809082031252	404.8156738281251	1588.74560546875	-949.9088134765627	-261.1662597656251	1067.376342773438	-1169.062866210938	-249.2584838867188	1119.696166992188	-891.0985107421877	-450.3506774902345	1174.400024414063	-1032.44921875	-458.0670776367189	1142.919799804688	-1057.69970703125	-458.7827758789064	1144.64892578125	-1002.486572265625	-340.4299926757813	857.2399902343752	-1198.720581054688	-315.6898193359376	777.4555664062502	-1197.717163085938	-266.3190917968751	777.653991699219	-1202.374755859375	-341.4958496093751	728.9763793945314	-1173.148803710938	-319.3459777832032	579.8878784179689	-1148.09228515625	-284.3397521972657	564.0010375976564	-1017.8505859375	-283.7699584960938	358.9171142578126	-1072.253784179688	-327.9288635253907	312.7247009277344	-1135.204467773438	-291.9482116699219	311.1231384277344	-1105.47607421875	-296.9154968261719	233.2328643798829	-1069.089111328125	-367.8143310546876	114.1818237304688	-1093.01904296875	-418.100555419922	89.0519256591797	-1036.232666015625	-212.1224212646485	59.94950103759767	-1010.487915039063	-204.0089569091797	55.85398864746095	-1052.63330078125	-329.6745300292969	134.9772491455078	-1015.209899902344	-245.9024963378907	780.4561767578127	-816.5236816406252	-196.7456665039063	734.8773803710939	-820.4451904296877	-165.3464508056641	742.7848510742189	-828.5794677734377	-208.248764038086	652.9091186523439	-826.0921630859377	-201.5601196289063	590.9382324218751	-822.3979492187502	-192.3596191406251	567.2416992187501	-950.312194824219	-183.5725555419922	446.6600341796876	-833.7595214843752	-257.4487304687501	387.1292724609376	-784.0902099609377	-221.105941772461	371.6929016113282	-810.7935180664065	-232.691635131836	327.1091613769532	-847.012634277344	-330.1441955566407	169.0641174316407	-778.5854492187502	-314.9789123535157	165.3583068847657	-869.7104492187502	-406.2351074218751	132.7421264648438	-822.4716796875002	-184.9169921875	95.49523162841798	-844.2024536132815	-181.2933502197266	100.2964019775391	-806.1527099609377	-198.5627746582032	80.43682861328126	-755.8593139648439	-281.6123352050782	1762.551879882813	-1165.446166992188	
